<svg 
    xmlns="http://www.w3.org/2000/svg" 
    width="24" 
    height="24" 
    viewBox="0 0 24 24"
    fill="none">
    <defs>
        <linearGradient id="purple-gradient" x1="0%" y1="0%" x2="100%" y2="100%">
            <stop offset="0%" style="stop-color:#A855F7;stop-opacity:1" />
            <stop offset="100%" style="stop-color:#EC4899;stop-opacity:1" />
        </linearGradient>
    </defs>
    <path 
        d="M4 19.5A2.5 2.5 0 0 1 6.5 17H17.5A2.5 2.5 0 0 1 20 19.5V20.5A1.5 1.5 0 0 1 18.5 22h-13A1.5 1.5 0 0 1 4 20.5v-1Z" 
        fill="#F3E8FF" stroke="#C084FC" stroke-width="1.5"/>
    <path 
        d="M4 19V8.5C4 7.11929 5.11929 6 6.5 6H17.5C18.8807 6 20 7.11929 20 8.5V19" 
        stroke="#C084FC" stroke-width="1.5" stroke-linecap="round"/>
    <path 
        d="M2 9L12 3L22 9L12 15L2 9Z" 
        fill="url(#purple-gradient)" stroke="white" stroke-width="1.5" stroke-linejoin="round"/>
</svg>